<svg width="571" height="428" viewBox="0 0 571 428" fill="none" xmlns="http://www.w3.org/2000/svg">
<mask id="path-1-inside-1_2_357" fill="white">
<path fill-rule="evenodd" clip-rule="evenodd" d="M306 37.5C306 16.7893 289.211 0 268.5 0H46C20.5949 0 0 20.5949 0 46V382C0 407.405 20.5949 428 46 428H525C550.405 428 571 407.405 571 382V121C571 95.5949 550.405 75 525 75H343.5C322.789 75 306 58.2107 306 37.5V37.5Z"/>
</mask>
<path d="M46 1H268.5V-1H46V1ZM1 46C1 21.1472 21.1472 1 46 1V-1C20.0426 -1 -1 20.0426 -1 46H1ZM1 382V46H-1V382H1ZM46 427C21.1472 427 1 406.853 1 382H-1C-1 407.957 20.0426 429 46 429V427ZM525 427H46V429H525V427ZM570 382C570 406.853 549.853 427 525 427V429C550.957 429 572 407.957 572 382H570ZM570 121V382H572V121H570ZM525 74H343.5V76H525V74ZM343.5 74C323.342 74 307 57.6584 307 37.5H305C305 58.763 322.237 76 343.5 76V74ZM572 121C572 95.0426 550.957 74 525 74V76C549.853 76 570 96.1472 570 121H572ZM268.5 1C288.658 1 305 17.3416 305 37.5H307C307 16.237 289.763 -1 268.5 -1V1Z" fill="black" fill-opacity="0.5" mask="url(#path-1-inside-1_2_357)"/>
</svg>
