<svg width="451" height="373" viewBox="0 0 451 373" fill="none" xmlns="http://www.w3.org/2000/svg">
<path d="M354.178 61.2969C359.416 66.9987 365.692 72.1709 369.918 78.6693C370.646 79.299 371.206 79.9435 371.849 80.6369C372.257 81.0766 372.159 80.9362 372.857 81.2441L373.425 81.4799C373.859 83.2086 373.301 84.738 373.733 86.4923L372.112 85.8121L372.176 84.5759C371.797 83.0326 369.661 80.8152 368.628 79.4262C364.045 73.9842 359.158 68.6716 353.577 64.185C354.813 64.1874 355.562 64.6992 356.531 65.3957L356.156 65.2607C355.405 64.0648 354.753 62.9519 354.287 61.6195C354.25 61.5125 354.215 61.4047 354.178 61.2969Z" fill="#807E76"/>
<path d="M307.139 84.2528C311.381 83.042 324.541 86.379 328.418 88.7303C328.748 88.9308 328.896 89.0644 329.222 89.3168L329.079 89.8488C326.826 90.4581 324.678 89.9323 322.401 89.7485C320.474 89.0486 318.508 88.5923 316.53 88.1051C317.708 89.8453 318.731 91.4553 318.45 93.7309C318.249 95.3568 317.479 96.9457 316.636 98.2735C316.536 96.9396 317.068 95.8747 317.422 94.641C317.867 93.0873 317.809 92.4173 317.117 90.9963C316.953 92.3364 317.05 94.168 316.444 95.3594C315.886 96.4568 315.252 97.1585 314.108 97.4162C313.92 97.4592 313.725 97.4689 313.534 97.4944C313.558 97.4575 313.577 97.4153 313.606 97.3827C314.308 96.5852 315.07 95.8536 315.575 94.8749C316.151 93.76 316.481 92.1025 316.018 90.8899C315.16 88.6415 312.119 87.7595 310.221 86.991C308.5 87.6751 306.973 88.5149 305.371 89.4716C304.912 88.7523 304.887 88.3469 304.866 87.4773C305.325 86.0194 306.127 85.2843 307.139 84.2528Z" fill="#807E76"/>
<path d="M129.726 93.2198C129.69 92.4126 129.671 91.7996 129.875 91.0078C130.099 90.1373 130.637 90.0646 131.329 89.6148L131.099 89.1103C126.261 88.9615 120.705 92.8573 116.493 92.6393L115.902 91.5892C116.089 90.9 116.035 90.7059 116.586 90.2202C118.694 88.363 138.436 83.6403 141.472 84.0174C143.337 84.2492 144.727 84.8281 145.908 86.3894C146.167 87.584 146.259 87.8183 145.897 88.9624L144.229 89.8064C140.956 89.5652 137.569 89.4883 134.365 88.7196C132.774 89.9492 132.335 91.337 131.67 93.2344L129.726 93.2198Z" fill="#807E76"/>
<path d="M402.635 144.445C403.31 147.347 404.057 154.58 405.405 156.711L405.697 155.962C406.079 156.367 406.438 156.799 406.877 157.134C406.377 158.112 406.011 158.983 405.977 160.112C405.834 164.909 406.568 169.93 406.749 174.752C407.008 181.627 406.799 188.535 406.685 195.414L407.079 195.988C407.461 195.701 407.782 195.453 408.115 195.1L409.847 195.794L406.572 197.92C406.331 199.351 406.227 201.138 405.71 202.467L405.189 202.38C404.909 201.199 405.93 201.167 405.776 200.246L405.357 200.209C405.198 200.417 405.003 200.6 404.88 200.834C404.515 201.534 404.468 202.177 403.95 202.942L403.749 203.235C403.818 201.593 403.844 200.075 403.597 198.448L403.877 197.865C405.189 196.192 404.968 190.627 404.987 188.412C405.051 180.564 405.723 159.099 400.608 153.568L401.472 152.127C402.097 152.523 401.768 152.462 402.452 152.346C402.659 150.636 401.943 148.613 401.552 146.946L402.418 146.924C402.504 146.099 402.576 145.273 402.635 144.445Z" fill="#807E76"/>
<path d="M373.731 81.783C374.255 81.4402 374.461 81.1339 374.826 80.6387C374.703 81.3878 374.568 82.2243 374.824 82.9584C376.016 86.3803 379.173 90.292 381.162 93.3933C384.163 98.0732 387.06 102.769 389.566 107.731C390.438 109.385 392.429 114.34 393.867 115.12L394.086 114.997C394.386 115.877 394.539 116.699 395.379 117.223C395.62 118.599 395.843 119.974 396.188 121.329L397.423 125.365L400.64 136.326C401.203 138.646 402.116 141.267 402.286 143.629C402.223 144.462 402.144 145.294 402.05 146.124L401.11 146.147C400.591 143.932 400.09 141.713 399.607 139.49C398.132 133.952 396.425 128.485 394.486 123.089L393.93 121.511C392.825 120.787 392.136 120.052 391.467 118.931C390.136 115.027 381.219 106.069 377.948 103.328C379.629 103.39 380.8 104.47 382.155 105.341C383.288 106.067 384.3 106.733 385.71 106.438L385.758 105.603C385.266 104.66 384.805 103.777 384.595 102.727C384.547 102.482 384.504 102.237 384.459 101.992C383.404 98.9874 376.462 88.2659 374.043 86.912C373.606 85.1169 374.169 83.552 373.731 81.783Z" fill="#807E76"/>
<path d="M225.336 0C227.561 9.66581 229.04 16.2161 235.998 23.2427C233.719 26.9661 231.482 30.6454 229.437 34.5196C228.287 36.6985 227.368 39.0313 226.14 41.1525C225.13 40.9231 224.548 40.9552 223.867 40.0634C221.497 36.9615 217.585 27.8996 215.001 23.6894C221.289 16.9515 223.754 9.22555 225.336 0Z" fill="#807E76"/>
<path d="M81.4639 83.4533C93.4341 70.7758 101.008 66.6437 118.2 64.8742C122.171 64.4661 126.232 64.418 130.175 63.8281C113.193 81.0061 105.722 82.1376 83.1604 85.6641L81.6272 85.1059L81.4639 83.4533Z" fill="#807E76"/>
<path d="M200.525 260.432C209.076 260.278 217.647 260.384 226.199 260.399C233.961 260.412 241.735 260.275 249.479 260.827C251.71 263.123 253.088 265.611 254.471 268.372L249.3 268.584C231.153 268.926 212.991 268.621 194.842 268.664C196.236 265.385 197.85 262.933 200.525 260.432Z" fill="#807E76"/>
<path d="M59.6299 118.911C63.7403 115.163 65.989 110.507 69.5438 106.374C79.3614 94.9602 95.8162 91.1095 110.021 89.0195C97.1505 102.524 89.302 109.587 71.2707 115.904C68.0653 117.027 64.8137 118.333 61.5503 119.254L59.6299 118.911Z" fill="#807E76"/>
<path d="M319.14 65.5086C334.516 65.47 348.641 66.7422 361.346 76.4769C364.975 79.2574 368.393 83.1868 372.558 85.0763C372.668 85.1262 372.78 85.1721 372.89 85.2197L372.826 86.504C367.291 85.4622 361.476 85.6918 355.863 85.235C340.153 83.9555 330.791 75.3585 319.14 65.5086Z" fill="#807E76"/>
<path d="M373.081 81.2229C372.979 80.9486 372.872 80.6766 372.775 80.3991C371.033 75.4162 368.187 71.0668 366.435 66.1155C361.857 53.1727 366.703 40.0134 367.591 26.8672C378.02 48.4919 379.109 56.5804 374.503 80.346C374.192 80.8268 374.017 81.1243 373.571 81.4572L373.081 81.2229Z" fill="#807E76"/>
<path d="M305.57 101.758L307.274 101.617C307.392 105.417 308.028 108.28 309.759 111.711C312.248 118.383 315.408 124.921 318.353 131.418C323.965 143.709 329.652 155.967 335.413 168.191C339.927 177.883 343.505 188.399 348.96 197.607C350.373 197.56 352.143 197.28 353.385 198C353.645 198.755 353.617 199.107 353.428 199.879L352.934 199.581C351.492 199.066 349.912 199.07 348.391 198.974C346.764 198.229 342.792 198.782 340.732 198.566L340.498 198.259C341.886 197.971 343.163 197.862 344.581 197.82C345.406 197.828 345.342 197.937 346.071 197.429C345.711 194.598 342.694 190.293 341.396 187.606C334.397 173.118 327.648 158.397 321.06 143.721C318.098 137.123 315.54 130.237 312.291 123.779C311.258 120.194 309.357 116.555 307.873 113.114C307.836 112.621 307.614 112.263 307.406 111.817C306.335 111.593 306.421 111.603 305.494 112.184L305.298 113.098C297.172 133.054 287.971 152.711 278.808 172.234C274.903 180.557 270.448 188.675 266.895 197.153C266.132 197.154 265.285 196.791 264.551 196.575C273.083 178.304 281.898 160.058 289.868 141.549C293.447 135.284 296.137 128.264 299.12 121.696C301.002 117.552 303.297 113.457 304.781 109.159L305.031 108.42C305.793 106.226 305.628 104.046 305.57 101.758Z" fill="#807E76"/>
<path d="M402.618 202.907L402.834 202.614C403.39 201.848 403.44 201.203 403.832 200.503C403.963 200.268 404.173 200.085 404.343 199.877L404.792 199.913C404.958 200.836 403.862 200.868 404.163 202.051L404.721 202.138C403.686 209.982 402.085 217.962 400.124 225.632C399.346 228.671 395.096 240.774 395.341 242.554L397.365 242.654L397.309 243.301C395.488 243.918 394.947 244.116 394.079 245.895C390.995 252.217 388.596 258.821 385.34 265.086C383.185 269.234 378.646 274.557 377.401 278.704L377.83 279.052L377.73 280.81C374.625 281.429 372.92 284.587 371.073 286.948C368.007 290.87 365.107 294.765 361.56 298.281C358.597 301.219 352.938 305.474 350.784 308.539C350.397 309.091 350.489 308.872 350.377 309.387L350.054 310.205C349.889 310.208 349.722 310.187 349.559 310.213C347.075 310.606 340.045 317.271 337.432 319.005C329.701 324.132 321.073 327.79 313.384 332.821C306.71 335.652 299.916 338.752 292.875 340.554C288.805 341.594 284.585 341.992 280.482 342.884C278.28 343.363 274.186 344.836 272.113 344.153C277.957 341.229 285.334 340.274 291.646 338.461C298.277 336.555 304.764 333.789 311.032 330.923C350.027 313.093 377.919 281.663 392.758 241.736C393.365 239.971 393.844 238.155 394.359 236.361C393.564 234.874 392.633 233.456 391.74 232.026L392.949 232.586C393.27 233.147 393.597 233.666 393.958 234.201L394.558 234.202C394.175 233.246 394.148 232.59 394.192 231.587L394.211 231.234L395.302 233.909L395.657 233.713C398.75 223.684 400.727 213.22 402.618 202.907Z" fill="#807E76"/>
<path d="M83.4698 24.6903L84.0741 24.3555C85.0876 26.592 84.965 30.5771 85.2109 33.0715C86.2962 44.1027 87.8803 54.684 84.2147 65.4152C81.8873 72.2295 77.7797 77.9088 75.5827 83.9846C74.4116 81.6045 74.25 78.7276 73.7807 76.1197C71.7594 64.8948 71.3315 55.326 74.7809 44.2818C76.739 38.0099 79.8347 30.1572 83.4698 24.6903Z" fill="#807E76"/>
<path d="M44.2435 59.6367C55.8726 80.6405 56.4198 91.5356 54.6984 115.157C54.6084 116.895 54.8447 118.794 53.579 120.106C52.8246 117.664 51.8111 115.311 50.8601 112.945C48.686 108.318 46.1401 103.742 44.3037 98.9651C39.4633 86.3779 40.8007 72.426 44.2435 59.6367Z" fill="#807E76"/>
<path d="M89.2351 217.523L89.5597 217.934C90.0886 221.532 89.7866 225.724 89.6513 229.374C89.0285 246.2 85.1519 252.087 78.3454 266.469C77.0896 269.122 76.2856 272.044 75.016 274.633L74.7068 273.996C73.7558 270.484 72.9177 266.93 72.5124 263.291C70.4933 245.166 79.3808 231.109 89.2351 217.523Z" fill="#807E76"/>
<path d="M335.941 88.1836C350.415 91.2564 365.771 95.8062 378.107 103.975C381.316 106.66 390.065 115.433 391.371 119.258C374.179 116.68 363.552 114.064 350.614 101.404C345.841 96.7328 341.509 91.9693 335.941 88.1836Z" fill="#807E76"/>
<path d="M48.7109 154.602C48.8065 154.489 48.9036 154.376 48.9984 154.261C52.5973 149.849 55.0914 144.368 58.3973 139.695C65.8503 129.159 74.2288 123.855 85.6417 118.676C89.1987 117.063 92.8087 115.226 96.5822 114.225C90.2878 128.402 78.9958 140.916 65.314 147.729C60.1261 150.312 54.2866 152.091 49.477 155.377L48.7109 154.602Z" fill="#807E76"/>
<path d="M366.224 215.016C368.976 218.72 373.148 227.626 375.245 232.104C381.633 245.748 382.016 257.677 377.099 271.936L376.589 272.965L376.138 272.819C375.395 268.424 371.945 263.737 370.005 259.71C362.945 245.053 363.861 230.673 366.224 215.016Z" fill="#807E76"/>
<path d="M81.1396 182.242L81.4669 182.824C81.4168 185.874 80.7129 188.936 80.1797 191.934C78.1486 203.361 75.0856 214.662 68.226 224.265C64.5115 229.465 60.0024 233.764 56.7561 239.352C56.5573 239.153 56.4022 238.736 56.2715 238.482C56.4868 232.869 56.2973 227.187 57.0451 221.612C59.1834 205.659 70.6227 193.632 81.1396 182.242Z" fill="#807E76"/>
<path d="M17.6357 98.2598C29.4289 110.856 38.5524 120.795 40.3865 138.406C41.0894 145.157 41.5119 150.849 44.5108 157.066L43.8706 157.889C41.8759 155.724 40.8259 152.701 38.8802 150.446C35.858 146.945 32.1586 144.008 29.2842 140.373C19.7405 128.303 18.6078 112.854 17.6357 98.2598Z" fill="#807E76"/>
<path d="M115.606 268.744C118.309 271.997 120.202 277.613 122.031 281.592C127.067 292.553 130.824 300.016 130.087 312.548C129.808 317.284 129.244 321.985 129.665 326.733L129.742 327.533L129.356 327.519C126.299 323.58 122.905 319.884 120.087 315.741C110.609 301.807 113.253 284.698 115.606 268.744Z" fill="#807E76"/>
<path d="M367.855 177.219C370.983 181.488 374.214 185.672 377.548 189.77C386.705 200.911 393.146 208.758 394.139 223.912C394.295 226.296 394.643 229.042 394.4 231.395L394.382 231.744C394.34 232.735 394.366 233.383 394.73 234.328L394.16 234.327C393.816 233.798 393.505 233.286 393.2 232.731L392.049 232.178C390.865 231.283 389.736 229.745 388.7 228.638C386.141 225.587 383.3 222.605 381.024 219.324C372.315 206.772 370.248 192.031 367.855 177.219Z" fill="#807E76"/>
<path d="M445.118 146.148C443.335 161.824 437.642 175.709 425.03 185.673C420.254 189.445 414.788 192.476 409.201 194.86L407.325 194.153C409.766 188.121 412.335 181.862 415.796 176.341C423.234 164.473 435.206 155.819 445.118 146.148Z" fill="#807E76"/>
<path d="M332.797 266.236C333.833 267.825 335.892 288.336 335.931 290.821C336.15 305.134 330.196 314.372 321.239 324.325L320.595 325.026L320.223 324.703C317.55 310.572 319.993 295.7 325.686 282.792C328.14 277.227 331.089 272.167 332.797 266.236Z" fill="#807E76"/>
<path d="M347.694 114.225C351.877 115.283 355.962 116.841 360.028 118.273C371.602 122.349 382.713 126.567 390.907 136.098C394.977 140.835 397.895 146.297 401.444 151.401L400.51 152.858C394.833 149.364 388.36 147.885 382.337 145.135C369.086 139.085 356.702 125.585 347.694 114.225Z" fill="#807E76"/>
<path d="M433.252 101.617C433.745 117.827 433.023 130.229 420.792 142.66C415.999 147.533 410.81 152.062 406.144 157.047C405.647 156.706 405.239 156.268 404.806 155.856C406.936 148.495 407.507 140.874 409.554 133.531C413.179 120.526 425.405 112.272 433.252 101.617Z" fill="#807E76"/>
<path d="M0 150.33C0.44387 150.509 0.495298 150.52 0.989014 150.774C4.49804 152.583 7.91924 154.984 11.1624 157.221C24.6581 166.523 30.8565 175.553 37.096 190.23C38.4394 193.391 40.207 196.596 41.1525 199.881C36.1085 195.595 30.2449 192.702 24.78 189.016C14.7838 182.275 9.47081 172.226 4.56371 161.706C2.8096 157.945 0.747695 154.443 0 150.33Z" fill="#807E76"/>
<path d="M359.455 142.785C365.591 147.285 371.595 151.931 377.772 156.386C395.904 169.464 400.132 175.729 403.966 197.624L403.657 198.215C400.814 192.007 390.165 186.992 384.916 181.833C375.079 172.168 364.455 155.58 359.455 142.785Z" fill="#807E76"/>
<path d="M393.556 115.363C391.034 95.4038 388.885 91.3749 397.971 72.6271C400.503 67.404 403.243 61.8018 404.715 56.2012L404.909 55.4336C405.595 57.1026 406.203 58.774 406.694 60.5087C411.944 79.0777 407.865 94.7193 398.319 111.068C396.964 113.196 395.859 115.275 394.859 117.582C394.012 117.06 393.859 116.24 393.556 115.363Z" fill="#807E76"/>
<path d="M379.706 278.761C379.834 278.699 379.963 278.64 380.09 278.577C385.223 275.997 389.11 271.202 394.114 268.295C409.597 259.3 423.281 259.829 440.077 256.992C420.051 275.075 406.381 280.118 379.608 280.508L379.706 278.761Z" fill="#807E76"/>
<path d="M351.3 236.008C352.562 238.73 352.941 242.366 353.734 245.288C357.084 257.621 361.187 269.012 358.68 281.996C357.544 287.884 354.701 293.429 353.653 299.23C353.514 299.997 353.566 300.034 353.038 300.676C352.27 299.277 351.512 297.874 350.763 296.466C338.81 273.953 343.495 258.953 351.3 236.008Z" fill="#807E76"/>
<path d="M316.594 280.518C316.602 280.724 316.63 280.932 316.618 281.139C316.387 285.109 315.293 289.453 314.671 293.411C310.995 316.807 303.314 324.643 284.707 338.467C284.745 336.247 287.049 334.061 287.375 331.681C288.045 326.787 287.995 321.724 289.438 316.959C292.734 306.077 308.156 288.746 316.594 280.518Z" fill="#807E76"/>
<path d="M86.4802 146.148C86.488 146.271 86.5092 146.394 86.5029 146.518C86.3118 150.524 83.5503 155.585 81.8657 159.238C75.9778 172.008 71.4941 179.033 60.2266 187.496C56.2332 190.495 51.8646 193.448 48.3388 197.007C48.2174 197.13 48.0991 197.255 47.9793 197.379C47.843 196.459 47.8242 196.839 47.9879 195.917C52.954 167.969 64.4941 160.794 86.4802 146.148Z" fill="#807E76"/>
<path d="M351.376 309.859C351.52 309.823 351.665 309.788 351.809 309.75C357.08 308.361 362.058 305.743 367.302 304.16C389.455 297.476 395.273 301.88 416.561 305.1C393.399 318.051 378.197 319.916 353.145 311.566C352.419 311.324 351.749 311.06 351.053 310.735L351.376 309.859Z" fill="#807E76"/>
<path d="M104.119 238.523C104.22 238.632 104.336 238.73 104.423 238.851C105.878 240.88 106.217 246.245 106.606 248.825C107.98 257.941 109.193 267.895 107.549 277.048C106.729 281.612 105.149 285.982 103.851 290.424C102.703 294.351 101.816 298.372 100.876 302.352C100.196 302.041 99.8436 300.433 99.5628 299.711C97.7488 295.779 95.8797 291.833 94.4478 287.748C88.4537 270.641 96.695 253.743 104.119 238.523Z" fill="#807E76"/>
<path d="M313.262 334.488L313.831 334.487C319.363 334.449 324.715 332.563 330.208 332.029C348.666 330.232 361.531 337.262 377.091 345.615C374.794 346.815 370.774 346.749 368.211 346.949C356.551 347.857 345.402 348.586 334.011 345.138C326.789 342.953 319.249 339.033 313.262 334.488Z" fill="#807E76"/>
<path d="M59.1883 300.175C73.8438 298.353 85.7992 303.797 98.2605 310.796C90.3304 313.355 83.482 316.157 75.0619 316.616C62.5506 316.733 47.2567 309.948 35.272 306.014C42.3749 302.741 51.4422 301.069 59.1883 300.175Z" fill="#807E76"/>
<path d="M184.907 279.674C184.808 277.572 184.376 274.177 185.781 272.448C185.899 272.305 186.05 272.192 186.198 272.082C187.721 270.949 258.162 271.239 265.282 271.58C265.884 274.118 266.724 276.787 267.072 279.363C247.271 279.935 227.347 279.483 207.533 279.508C200.016 279.518 192.412 279.286 184.907 279.674Z" fill="#807E76"/>
<path d="M307.385 17.6445C307.777 17.7696 308.172 17.8883 308.558 18.0283C331.816 26.4317 345.055 39.5919 355.364 61.3335C355.401 61.4435 355.437 61.5535 355.475 61.6627C355.952 63.0222 356.621 64.1578 357.391 65.3781L357.776 65.5158C356.782 64.8052 356.014 64.2829 354.748 64.2805C348.662 60.85 342.251 57.7059 336.511 53.7444C323.878 45.0277 314.302 30.9654 307.385 17.6445Z" fill="#807E76"/>
<path d="M135.212 280.518C139.079 282.909 142.671 288.173 145.61 291.679C150.329 297.308 155.802 303.053 158.753 309.886C163.331 320.488 160.422 328.256 167.966 338.467C164.278 337.192 154.789 329.103 151.751 326.118C142.616 317.146 139.428 305.637 137.015 293.357C136.193 289.178 135.257 284.785 135.212 280.518Z" fill="#807E76"/>
<path d="M397.306 242.088C397.397 242.024 397.489 241.961 397.579 241.894C401.489 238.985 403.828 233.555 406.958 229.827C417.871 216.828 434.592 208.574 451 204.092C447.496 208.787 444.349 213.786 440.692 218.358C429.437 232.433 415.124 239.67 397.25 242.725L397.306 242.088Z" fill="#807E76"/>
<path d="M106.662 189.392C109.393 182.044 112.646 174.843 115.701 167.621C119.755 158.042 123.708 148.427 127.89 138.903C132.232 129.018 136.854 119.048 140.291 108.809C140.974 106.776 139.812 102.962 141.294 101.617C142.468 101.754 142.576 101.737 143.447 102.516C144.327 104.974 143.738 107.287 144.899 109.763C149.048 118.606 152.734 127.71 156.619 136.676C161.383 147.671 166.311 158.579 170.992 169.614C174.936 178.912 178.448 188.814 183.088 197.759C182.201 197.811 181.355 197.673 180.475 197.569C176.922 189.996 173.801 182.193 170.449 174.528C165.134 162.545 159.893 150.529 154.727 138.48C151.022 129.685 147.881 120.214 143.537 111.746C143.606 139.208 144.227 166.674 143.967 194.142C143.795 195.655 143.894 197.155 142.638 198.2C141.723 195.293 142.436 192.208 141.764 189.22L141.626 111.744L120.561 162.867C116.536 172.557 112.072 182.108 108.253 191.875L107.573 192.299L106.958 192.108C106.836 191.203 106.746 190.301 106.662 189.392Z" fill="#807E76"/>
<path d="M0 204.092C2.41356 204.324 4.96822 205.446 7.22041 206.335C26.4213 213.912 41.8256 226.414 50.3908 246.084C45.7048 242.853 39.4074 242.194 34.2014 240.022C16.7476 232.741 10.1555 218.988 0 204.092Z" fill="#807E76"/>
<path d="M282.187 344.357C284.333 344.33 286.479 344.323 288.624 344.338C311.465 344.579 323.517 357.416 338.457 372.885C323.356 372.53 305.254 368.92 294.002 357.961C289.882 353.948 286.745 348.979 282.693 344.866L282.187 344.357Z" fill="#807E76"/>
<path d="M9.23486 257.059C9.6545 257.025 10.0749 257.005 10.4962 256.999C15.5756 256.903 20.9977 257.805 26.007 258.688C45.748 262.169 58.0343 269.669 72.2234 283.867C66.0802 282.88 59.6263 283.832 53.417 283.21C37.9181 281.659 20.1412 268.104 9.23486 257.059Z" fill="#807E76"/>
<path d="M89.8647 65.8317C94.2941 60.4647 97.2764 54.6464 101.038 48.8872C111.848 32.3332 124.19 23.926 142.775 17.6445C135.604 30.9619 124.856 48.0784 110.754 55.1111C103.868 58.545 96.3486 60.2359 91.2506 66.3556L89.8647 65.8317Z" fill="#807E76"/>
<path d="M72.2239 345.703C86.3481 336.31 102.497 330.392 119.779 332.013C125.048 332.507 130.061 334.298 135.372 334.428L136.042 334.442C136.345 334.733 136.456 334.983 136.892 335.024C136.817 335.089 136.745 335.158 136.666 335.221C115.03 352.491 97.3566 347.339 72.2239 345.703Z" fill="#807E76"/>
<path d="M157.157 344.33C160.499 344.426 163.803 344.576 167.131 344.902C164.298 347.617 162.144 350.931 159.659 353.95C149.704 366.046 131.733 370.496 116.751 371.905L106.662 372.885C121.967 359.2 135.25 345.766 157.157 344.33Z" fill="#807E76"/>
<path d="M74.7345 84.0592C80.1833 78.9819 84.2268 71.9809 89.1656 66.3574L90.5395 66.883C88.0882 69.8072 78.1175 81.4327 77.8747 84.1898C78.4383 84.4819 78.1876 84.4724 78.8639 84.2602C79.6159 84.0243 80.0328 83.718 80.6413 83.2391L80.8037 84.816L82.328 85.3487C77.8645 86.1569 75.8451 86.8187 72.8468 90.3896C70.7061 93.6943 68.5459 96.9863 66.3663 100.266C64.0994 104.194 57.5085 114.339 57.6402 118.726C58.2896 119.04 58.3101 118.935 58.984 118.818L60.9159 119.162C59.3277 119.65 57.6023 119.995 56.2979 121.066L55.6484 122.351C52.4207 130.861 50.2185 139.394 47.6379 148.098C47.1831 150.099 45.9709 153.346 46.6716 155.233C47.3975 155 47.7861 154.679 48.3544 154.177L49.119 154.934C48.0707 155.984 46.9758 157.012 46.0079 158.137C39.339 202.37 49.0181 245.735 75.5543 281.919C89.0246 300.287 107.208 316.926 127.593 327.237C134.803 330.885 142.478 333.666 150.17 336.095C159.943 339.182 170.124 340.647 179.724 344.347C171.044 343.884 157.81 340.848 149.567 338.217C146.692 337.299 138.111 333.604 135.633 333.985C135.197 333.943 135.087 333.685 134.783 333.385L134.924 333.253C133.994 331.896 128.432 329.84 126.801 329.053C119.986 325.763 113.649 321.701 107.457 317.352C101.87 313.427 97.1493 308.828 92.1828 304.168C90.8208 302.889 89.4812 301.586 88.1638 300.259C86.8465 298.933 85.5523 297.585 84.2812 296.213C83.0101 294.842 81.7632 293.449 80.5404 292.035C79.3171 290.62 78.1188 289.185 76.9454 287.729C75.7721 286.273 74.6239 284.797 73.501 283.301C72.3781 281.805 71.2814 280.29 70.2111 278.756C69.1402 277.222 68.0961 275.67 67.0788 274.099C66.062 272.529 65.0723 270.942 64.1096 269.337C63.147 267.732 62.2122 266.111 61.3053 264.474C60.3988 262.837 59.5208 261.185 58.6711 259.517C57.8209 257.85 56.9999 256.168 56.208 254.472C55.4161 252.776 54.6537 251.066 53.9206 249.344C53.1871 247.621 52.4838 245.886 51.8107 244.14C51.137 242.393 50.4938 240.635 49.8811 238.865C49.2684 237.096 48.6862 235.316 48.1345 233.527C47.5828 231.737 47.062 229.939 46.5723 228.131C43.4896 216.296 41.981 203.418 41.3205 191.213C41.1109 187.338 41.0723 183.526 41.3253 179.652C41.5901 175.582 43.6158 161.767 42.9356 158.968C42.8977 158.813 42.8283 158.667 42.774 158.517L43.4022 157.676C44.8737 154.36 45.0266 149.654 45.8432 146.029C46.2026 139.506 49.7022 132.313 51.6743 126.092L53.5967 121.13L53.38 120.483C54.6891 119.163 54.4448 117.252 54.5378 115.503C54.6813 116.556 54.7971 117.599 55.0966 118.621C56.2521 116.834 56.837 114.677 57.6039 112.698C59.1621 108.679 61.1027 104.475 63.7006 101.019C65.0673 97.1705 68.5787 93.1515 70.9567 89.8205C72.2998 87.9349 73.5625 86.0572 74.7345 84.0592Z" fill="#807E76"/>
<path d="M267.253 278.82C267.752 279.411 268.255 279.977 268.679 280.622L279.57 280.583C279.741 283.858 279.656 287.106 279.565 290.38C267.941 290.756 256.289 290.486 244.66 290.46C220.248 290.405 195.807 290.205 171.397 290.533C171.241 287.293 171.392 284.022 171.45 280.779L177.834 280.7C179.985 280.534 182.187 280.878 184.262 280.209L184.741 279.123C192.277 278.746 199.913 278.971 207.462 278.962C227.361 278.938 247.369 279.378 267.253 278.82Z" fill="#807E76"/>
<path d="M270.601 199.877C282.357 199.868 294.15 200.149 305.899 199.911C309.334 199.953 312.993 199.752 316.392 200.154C326.824 199.714 337.309 200.603 347.729 200.113C349.24 200.206 350.808 200.202 352.241 200.695L352.731 200.981C350.925 203.928 347.918 206.623 345.215 208.852C331.69 220 311.859 219.836 294.899 218.664C278.618 217.54 270.551 212.116 260.157 200.777L259.508 200.153C263.142 200.387 266.958 200.012 270.601 199.877Z" fill="#807E76"/>
<path d="M141.023 188.953C141.689 191.953 140.983 195.05 141.89 197.968C143.133 196.92 143.035 195.413 143.206 193.895C143.271 195.007 143.128 196.168 143.716 197.122C148.329 197.675 153.13 197.442 157.777 197.444C164.979 197.456 172.181 197.419 179.382 197.334C180.253 197.439 181.092 197.578 181.971 197.526C183.411 197.522 185.095 197.33 186.444 197.887L186.435 198.388L186.021 198.747C185.496 199.401 185.098 200.027 184.361 200.444C180.963 203.544 177.843 207.236 174.14 209.949C163.041 218.077 147.292 218.844 134.056 218.149C120.757 217.45 113.204 214.23 102.994 205.779L97.1585 199.819L96.6343 198.867L96.5806 198.148C98.1042 197.114 101.094 197.331 102.926 197.217C103.997 194.506 105.102 191.809 106.24 189.126C106.324 190.039 106.412 190.944 106.533 191.853L107.143 192.044L107.817 191.619L105.389 197.487C117.238 197.755 129.166 197.23 141.028 197.249C140.971 194.487 141.019 191.716 141.023 188.953Z" fill="#807E76"/>
<path d="M141.442 188C142.108 191.213 141.402 194.529 142.309 197.654C143.553 196.531 143.455 194.918 143.625 193.292C143.69 194.483 143.548 195.726 144.135 196.748C148.748 197.34 153.55 197.091 158.197 197.092C165.398 197.105 172.6 197.066 179.801 196.975C180.673 197.087 181.512 197.236 182.39 197.18C183.831 197.176 185.515 196.97 186.864 197.567L186.855 198.104L186.441 198.488C181.575 199.417 176.132 198.561 171.174 198.503L143.053 198.43L131.433 198.442C119.973 198.395 108.513 198.453 97.0538 198.617L97 197.847C98.5236 196.74 101.514 196.972 103.346 196.85C104.416 193.947 105.521 191.058 106.66 188.185C106.743 189.163 106.832 190.132 106.953 191.105L107.562 191.31L108.237 190.855L105.809 197.138C117.658 197.425 129.586 196.863 141.447 196.884C141.39 193.927 141.438 190.959 141.442 188Z" fill="#807E76"/>
<path d="M305.131 135.225C306.379 137.335 305.03 191.462 305.7 199.555C294.156 199.809 282.569 199.51 271.019 199.52C267.439 199.663 263.69 200.062 260.12 199.813C259.748 199.695 259.985 199.801 259.508 199.322C260.957 198.246 262.917 198.244 264.552 197.538C264.7 197.474 264.841 197.396 264.987 197.326C265.702 197.546 266.53 197.916 267.274 197.915L268.833 198.324C280.899 198.072 292.991 198.252 305.06 198.28C305.06 177.279 304.731 156.218 305.131 135.225Z" fill="#807E76"/>
<path d="M304.866 112.307L305.061 111.377C305.983 110.785 305.897 110.775 306.962 111.003C307.169 111.457 307.389 111.822 307.425 112.324C308.901 115.826 310.791 119.531 311.817 123.18C311.652 123.015 311.482 122.853 311.319 122.684C310.599 121.941 310.268 121.082 309.892 120.137L309.352 119.856C308.508 120.589 308.153 121.249 308.055 122.362C307.837 124.798 308.322 127.053 307.517 129.426C306.787 152.293 307.773 175.337 307.57 198.232L329.518 198.275C334.28 198.274 339.174 198.076 343.911 198.553C342.502 198.596 341.232 198.706 339.853 199L340.085 199.313C342.133 199.533 346.081 198.969 347.698 199.727C337.271 200.248 326.777 199.303 316.337 199.77C312.936 199.343 309.273 199.557 305.836 199.513C305.155 191.43 306.528 137.383 305.257 135.276C305.066 127.721 305.788 119.805 304.866 112.307Z" fill="#807E76"/>
<path d="M215.793 63.7135C212.867 60.8188 210.77 58.683 210.726 54.379C210.688 50.8675 212.165 47.5872 214.718 45.1853C217.759 42.3231 222.112 40.9377 226.256 41.1793C230.107 41.4043 233.767 42.9732 236.259 45.9586C238.513 48.661 240.103 53.0406 239.594 56.5632C239.169 59.5065 237.217 61.7686 234.862 63.4528C234.018 64.0561 233.109 64.5425 232.186 65.0123C232.698 66.3444 232.792 66.6623 234.081 67.2744C235.67 68.0294 236.604 68.3132 237.817 69.6557C244.44 70.7533 251.05 71.9607 257.255 74.6218C263.98 77.5062 270.073 81.6743 276.39 85.3202C287.562 91.7694 301.817 98.2115 314.976 96.6083C315.167 96.5853 315.361 96.5765 315.549 96.5376C316.69 96.3047 317.323 95.6704 317.88 94.6785C318.484 93.6015 318.388 91.9459 318.551 90.7345C319.242 92.019 319.3 92.6246 318.855 94.0291C318.503 95.1442 317.971 96.1068 318.072 97.3126L316.984 99.2336C314.063 100.432 311.608 101.59 308.398 101.043L306.701 101.187L306.167 101.37C298.465 100.316 290.928 99.0659 283.706 96.0535C268.174 89.5757 253.965 76.3259 236.31 76.2011C234.194 75.8482 232.217 75.8275 230.08 75.8585C232.503 77.3449 236.067 79.9129 236.577 82.9079C236.791 84.1684 236.432 85.2598 235.65 86.235C234.23 88.0051 232.112 89.5534 229.805 89.7195C229.578 89.7354 229.35 89.7442 229.123 89.7561C228.678 90.5398 228.769 90.1345 228.791 90.9579C228.867 98.2528 229.432 105.553 229.621 112.851C230.861 160.88 233.659 208.956 234.204 256.993L216.633 256.961C216.624 247.103 217.232 237.168 217.537 227.308L220.752 147.893L222.267 108.785C222.533 102.456 222.443 95.8731 223.325 89.6059C221.553 89.4874 219.864 89.3881 218.089 89.5773C217.887 89.3134 217.69 89.045 217.5 88.7721C216.158 86.8296 215.494 83.9904 216.022 81.6624C216.652 78.8797 218.22 77.5865 220.557 76.1351C217.769 76.1383 215.04 76.1939 212.266 76.4777C206.225 77.4076 200.735 78.9989 195.158 81.5169C187.864 84.8099 181.241 89.3619 174.118 92.9799C162.299 98.9849 143.47 105.951 131.072 98.0024C130.467 96.3768 129.888 94.7423 129.334 93.0991L131.256 93.1127C131.762 94.1316 132.245 95.1387 133.187 95.8365C136.999 98.6614 142.644 97.5216 146.912 96.54C167.746 91.7448 177.048 82.4445 195.035 74.4739C201.116 71.7787 207.124 70.3885 213.694 69.4808C215.166 68.3839 216.89 68.4809 218.659 68.3362L218.548 67.8745L219.16 68.1344C219.24 65.0385 217.48 65.9391 215.793 63.7135Z" fill="#807E76"/>
</svg>
